<svg xmlns="http://www.w3.org/2000/svg" width="512" height="512" viewBox="0 0 409.2 409.2"><g fill="#005B2E"><path d="M204.6 216.7c50.6 0 91.7-48 91.7-107.4C296.3 27 255.3 2 204.6 2s-91.8 25-91.8 107.3c0 59.3 41 107.4 91.8 107.4zM407.2 374.7L361 270.5c-2.2-4.8-6-8.8-10.6-11.2L278.6 222c-1.6-1-3.5-.7-5 .3-20.3 15.4-44 23.5-69 23.5s-48.8-8-69-23.5c-1.5-1-3.4-1.2-5-.4l-71.8 37.3c-4.7 2.4-8.4 6.4-10.5 11.2L2 374.7c-3.2 7.2-2.5 15.4 1.8 22 4.2 6.6 11.5 10.5 19.4 10.5H386c8 0 15-4 19.4-10.5 4.3-6.6 5-14.8 1.8-22z"/></g></svg>